<?xml version="1.0" encoding="UTF-8" standalone="no"?>
<!DOCTYPE svg PUBLIC "-//W3C//DTD SVG 1.1//EN"
 "http://www.w3.org/Graphics/SVG/1.1/DTD/svg11.dtd">
<!-- Generated by graphviz version 2.26.0 (20091210.2329)
 -->
<!-- Title: G Pages: 1 -->
<svg width="856pt" height="3747pt"
 viewBox="0.00 0.00 856.00 3747.00" xmlns="http://www.w3.org/2000/svg" xmlns:xlink="http://www.w3.org/1999/xlink">
<g id="graph1" class="graph" transform="scale(1 1) rotate(0) translate(4 3743)">
<title>G</title>
<polygon fill="white" stroke="white" points="-4,5 -4,-3743 853,-3743 853,5 -4,5"/>
<g id="graph2" class="cluster"><title>cluster_Global</title>
<polyline fill="none" stroke="gray" points="182,-8 828,-8 "/>
<path fill="none" stroke="gray" d="M828,-8C834,-8 840,-14 840,-20"/>
<polyline fill="none" stroke="gray" points="840,-20 840,-3719 "/>
<path fill="none" stroke="gray" d="M840,-3719C840,-3725 834,-3731 828,-3731"/>
<polyline fill="none" stroke="gray" points="828,-3731 182,-3731 "/>
<path fill="none" stroke="gray" d="M182,-3731C176,-3731 170,-3725 170,-3719"/>
<polyline fill="none" stroke="gray" points="170,-3719 170,-20 "/>
<path fill="none" stroke="gray" d="M170,-20C170,-14 176,-8 182,-8"/>
<text text-anchor="middle" x="505" y="-3717.1" font-family="Times Roman,serif" font-size="11.00" fill="gray">Global</text>
</g>
<g id="graph3" class="cluster"><title>cluster_\Intuit</title>
<polyline fill="none" stroke="gray" points="345,-3192 784,-3192 "/>
<path fill="none" stroke="gray" d="M784,-3192C790,-3192 796,-3198 796,-3204"/>
<polyline fill="none" stroke="gray" points="796,-3204 796,-3688 "/>
<path fill="none" stroke="gray" d="M796,-3688C796,-3694 790,-3700 784,-3700"/>
<polyline fill="none" stroke="gray" points="784,-3700 345,-3700 "/>
<path fill="none" stroke="gray" d="M345,-3700C339,-3700 333,-3694 333,-3688"/>
<polyline fill="none" stroke="gray" points="333,-3688 333,-3204 "/>
<path fill="none" stroke="gray" d="M333,-3204C333,-3198 339,-3192 345,-3192"/>
<text text-anchor="middle" x="564.5" y="-3686.1" font-family="Times Roman,serif" font-size="11.00" fill="gray">Intuit</text>
</g>
<g id="graph4" class="cluster"><title>cluster_\Intuit\Ipp</title>
<polyline fill="none" stroke="gray" points="353,-3200 776,-3200 "/>
<path fill="none" stroke="gray" d="M776,-3200C782,-3200 788,-3206 788,-3212"/>
<polyline fill="none" stroke="gray" points="788,-3212 788,-3657 "/>
<path fill="none" stroke="gray" d="M788,-3657C788,-3663 782,-3669 776,-3669"/>
<polyline fill="none" stroke="gray" points="776,-3669 353,-3669 "/>
<path fill="none" stroke="gray" d="M353,-3669C347,-3669 341,-3663 341,-3657"/>
<polyline fill="none" stroke="gray" points="341,-3657 341,-3212 "/>
<path fill="none" stroke="gray" d="M341,-3212C341,-3206 347,-3200 353,-3200"/>
<text text-anchor="middle" x="564.5" y="-3655.1" font-family="Times Roman,serif" font-size="11.00" fill="gray">Ipp</text>
</g>
<g id="graph5" class="cluster"><title>cluster_\Intuit\Ipp\Utility</title>
<polyline fill="none" stroke="gray" points="361,-3208 768,-3208 "/>
<path fill="none" stroke="gray" d="M768,-3208C774,-3208 780,-3214 780,-3220"/>
<polyline fill="none" stroke="gray" points="780,-3220 780,-3626 "/>
<path fill="none" stroke="gray" d="M780,-3626C780,-3632 774,-3638 768,-3638"/>
<polyline fill="none" stroke="gray" points="768,-3638 361,-3638 "/>
<path fill="none" stroke="gray" d="M361,-3638C355,-3638 349,-3632 349,-3626"/>
<polyline fill="none" stroke="gray" points="349,-3626 349,-3220 "/>
<path fill="none" stroke="gray" d="M349,-3220C349,-3214 355,-3208 361,-3208"/>
<text text-anchor="middle" x="564.5" y="-3624.1" font-family="Times Roman,serif" font-size="11.00" fill="gray">Utility</text>
</g>
<g id="graph6" class="cluster"><title>cluster_\Intuit\Ipp\Utility\Serialization</title>
<polyline fill="none" stroke="gray" points="369,-3424 747,-3424 "/>
<path fill="none" stroke="gray" d="M747,-3424C753,-3424 759,-3430 759,-3436"/>
<polyline fill="none" stroke="gray" points="759,-3436 759,-3595 "/>
<path fill="none" stroke="gray" d="M759,-3595C759,-3601 753,-3607 747,-3607"/>
<polyline fill="none" stroke="gray" points="747,-3607 369,-3607 "/>
<path fill="none" stroke="gray" d="M369,-3607C363,-3607 357,-3601 357,-3595"/>
<polyline fill="none" stroke="gray" points="357,-3595 357,-3436 "/>
<path fill="none" stroke="gray" d="M357,-3436C357,-3430 363,-3424 369,-3424"/>
<text text-anchor="middle" x="558" y="-3593.1" font-family="Times Roman,serif" font-size="11.00" fill="gray">Serialization</text>
</g>
<!-- \\Intuit\\Ipp\\Utility\\Serialization\\UnknownEntity -->
<g id="node6" class="node"><title>\\Intuit\\Ipp\\Utility\\Serialization\\UnknownEntity</title>
<polygon fill="none" stroke="black" points="751,-3576 647,-3576 647,-3540 751,-3540 751,-3576"/>
<text text-anchor="middle" x="699" y="-3555.1" font-family="Courier,monospace" font-size="11.00">UnknownEntity</text>
</g>
<!-- \\Intuit\\Ipp\\Utility\\Serialization\\AbstractEntity -->
<g id="node9" class="node"><title>\\Intuit\\Ipp\\Utility\\Serialization\\AbstractEntity</title>
<polygon fill="none" stroke="black" points="477,-3522 365,-3522 365,-3486 477,-3486 477,-3522"/>
<text text-anchor="start" x="387" y="-3509.43" font-family="Courier,monospace" font-size="11.00">«abstract»</text>
<text text-anchor="start" x="373.5" y="-3496.23" font-family="Courier,monospace" font-size="11.00">AbstractEntity</text>
</g>
<!-- \\Intuit\\Ipp\\Utility\\Serialization\\UnknownEntity&#45;&gt;\\Intuit\\Ipp\\Utility\\Serialization\\AbstractEntity -->
<g id="edge9" class="edge"><title>\\Intuit\\Ipp\\Utility\\Serialization\\UnknownEntity&#45;&gt;\\Intuit\\Ipp\\Utility\\Serialization\\AbstractEntity</title>
<path fill="none" stroke="black" d="M646.71,-3547.84C601.536,-3539.07 536.018,-3526.34 487.195,-3516.86"/>
<polygon fill="none" stroke="black" points="487.838,-3513.42 477.354,-3514.95 486.503,-3520.29 487.838,-3513.42"/>
</g>
<!-- \\Intuit\\Ipp\\Utility\\Serialization\\SimpleEntity -->
<g id="node7" class="node"><title>\\Intuit\\Ipp\\Utility\\Serialization\\SimpleEntity</title>
<polygon fill="none" stroke="black" points="748,-3522 650,-3522 650,-3486 748,-3486 748,-3522"/>
<text text-anchor="middle" x="699" y="-3501.1" font-family="Courier,monospace" font-size="11.00">SimpleEntity</text>
</g>
<!-- \\Intuit\\Ipp\\Utility\\Serialization\\SimpleEntity&#45;&gt;\\Intuit\\Ipp\\Utility\\Serialization\\AbstractEntity -->
<g id="edge17" class="edge"><title>\\Intuit\\Ipp\\Utility\\Serialization\\SimpleEntity&#45;&gt;\\Intuit\\Ipp\\Utility\\Serialization\\AbstractEntity</title>
<path fill="none" stroke="black" d="M649.939,-3504C604.732,-3504 537.282,-3504 487.294,-3504"/>
<polygon fill="none" stroke="black" points="487.223,-3500.5 477.223,-3504 487.223,-3507.5 487.223,-3500.5"/>
</g>
<!-- \\Intuit\\Ipp\\Utility\\Serialization\\ObjectEntity -->
<g id="node8" class="node"><title>\\Intuit\\Ipp\\Utility\\Serialization\\ObjectEntity</title>
<polygon fill="none" stroke="black" points="748,-3468 650,-3468 650,-3432 748,-3432 748,-3468"/>
<text text-anchor="middle" x="699" y="-3447.1" font-family="Courier,monospace" font-size="11.00">ObjectEntity</text>
</g>
<!-- \\Intuit\\Ipp\\Utility\\Serialization\\ObjectEntity&#45;&gt;\\Intuit\\Ipp\\Utility\\Serialization\\AbstractEntity -->
<g id="edge61" class="edge"><title>\\Intuit\\Ipp\\Utility\\Serialization\\ObjectEntity&#45;&gt;\\Intuit\\Ipp\\Utility\\Serialization\\AbstractEntity</title>
<path fill="none" stroke="black" d="M649.939,-3459.53C604.732,-3468.31 537.282,-3481.41 487.294,-3491.12"/>
<polygon fill="none" stroke="black" points="486.373,-3487.74 477.223,-3493.08 487.707,-3494.61 486.373,-3487.74"/>
</g>
<!-- \\Intuit\\Ipp\\Utility\\MetadataExtractor -->
<g id="node10" class="node"><title>\\Intuit\\Ipp\\Utility\\MetadataExtractor</title>
<polygon fill="none" stroke="black" points="764,-3414 634,-3414 634,-3378 764,-3378 764,-3414"/>
<text text-anchor="middle" x="699" y="-3393.1" font-family="Courier,monospace" font-size="11.00">MetadataExtractor</text>
</g>
<!-- \\Intuit\\Ipp\\Utility\\SerializationFormat -->
<g id="node11" class="node"><title>\\Intuit\\Ipp\\Utility\\SerializationFormat</title>
<polygon fill="none" stroke="black" points="771,-3360 627,-3360 627,-3324 771,-3324 771,-3360"/>
<text text-anchor="middle" x="699" y="-3339.1" font-family="Courier,monospace" font-size="11.00">SerializationFormat</text>
</g>
<!-- \\Intuit\\Ipp\\Utility\\CompressionFormat -->
<g id="node12" class="node"><title>\\Intuit\\Ipp\\Utility\\CompressionFormat</title>
<polygon fill="none" stroke="black" points="764,-3306 634,-3306 634,-3270 764,-3270 764,-3306"/>
<text text-anchor="middle" x="699" y="-3285.1" font-family="Courier,monospace" font-size="11.00">CompressionFormat</text>
</g>
<!-- \\Intuit\\Ipp\\Utility\\DomainEntityBuilder -->
<g id="node13" class="node"><title>\\Intuit\\Ipp\\Utility\\DomainEntityBuilder</title>
<polygon fill="none" stroke="black" points="771,-3252 627,-3252 627,-3216 771,-3216 771,-3252"/>
<text text-anchor="middle" x="699" y="-3231.1" font-family="Courier,monospace" font-size="11.00">DomainEntityBuilder</text>
</g>
<!-- \\ValidationException -->
<g id="node14" class="node"><title>\\ValidationException</title>
<polygon fill="none" stroke="black" points="493,-700 349,-700 349,-664 493,-664 493,-700"/>
<text text-anchor="middle" x="421" y="-679.1" font-family="Courier,monospace" font-size="11.00">ValidationException</text>
</g>
<!-- \\IdsException -->
<g id="node20" class="node"><title>\\IdsException</title>
<polygon fill="none" stroke="black" points="276,-1105 178,-1105 178,-1069 276,-1069 276,-1105"/>
<text text-anchor="middle" x="227" y="-1084.1" font-family="Courier,monospace" font-size="11.00">IdsException</text>
</g>
<!-- \\ValidationException&#45;&gt;\\IdsException -->
<g id="edge7" class="edge"><title>\\ValidationException&#45;&gt;\\IdsException</title>
<path fill="none" stroke="black" d="M348.148,-696.684C342.48,-700.004 337.3,-704.057 333,-709 230.092,-827.299 367.313,-933.162 278.821,-1060.36"/>
<polygon fill="none" stroke="black" points="275.746,-1058.63 272.66,-1068.77 281.393,-1062.77 275.746,-1058.63"/>
</g>
<!-- \\LoggerMech -->
<g id="node15" class="node"><title>\\LoggerMech</title>
<polygon fill="none" stroke="black" points="741,-3184 657,-3184 657,-3148 741,-3148 741,-3184"/>
<text text-anchor="middle" x="699" y="-3163.1" font-family="Courier,monospace" font-size="11.00">LoggerMech</text>
</g>
<!-- \\IEntitySerializer -->
<g id="node16" class="node"><title>\\IEntitySerializer</title>
<polygon fill="none" stroke="black" points="486,-754 356,-754 356,-718 486,-718 486,-754"/>
<text text-anchor="middle" x="421" y="-733.1" font-family="Courier,monospace" font-size="11.00">IEntitySerializer</text>
</g>
<!-- \\RequestResponse -->
<g id="node17" class="node"><title>\\RequestResponse</title>
<polygon fill="none" stroke="black" points="480,-997 362,-997 362,-961 480,-961 480,-997"/>
<text text-anchor="middle" x="421" y="-976.1" font-family="Courier,monospace" font-size="11.00">RequestResponse</text>
</g>
<!-- \\CompressionFormat -->
<g id="node18" class="node"><title>\\CompressionFormat</title>
<polygon fill="none" stroke="black" points="764,-3130 634,-3130 634,-3094 764,-3094 764,-3130"/>
<text text-anchor="middle" x="699" y="-3109.1" font-family="Courier,monospace" font-size="11.00">CompressionFormat</text>
</g>
<!-- \\IdsError -->
<g id="node19" class="node"><title>\\IdsError</title>
<polygon fill="none" stroke="black" points="734,-52 664,-52 664,-16 734,-16 734,-52"/>
<text text-anchor="middle" x="699" y="-31.1" font-family="Courier,monospace" font-size="11.00">IdsError</text>
</g>
<!-- \\Exception -->
<g id="node87" class="node"><title>\\Exception</title>
<ellipse fill="none" stroke="black" cx="53" cy="-711" rx="53.033" ry="19.0919"/>
<text text-anchor="middle" x="53" y="-707.9" font-family="Times Roman,serif" font-size="14.00" fill="gray">\Exception</text>
</g>
<!-- \\IdsError&#45;&gt;\\Exception -->
<g id="edge11" class="edge"><title>\\IdsError&#45;&gt;\\Exception</title>
<path fill="none" stroke="black" d="M663.242,-34.6468C634.975,-36.6443 595.501,-42.8533 566,-61 299.103,-225.177 114.8,-580.998 65.9305,-683.096"/>
<polygon fill="none" stroke="black" points="62.75,-681.634 61.6257,-692.169 69.0744,-684.635 62.75,-681.634"/>
</g>
<!-- \\IdsException&#45;&gt;\\Exception -->
<g id="edge13" class="edge"><title>\\IdsException&#45;&gt;\\Exception</title>
<path fill="none" stroke="black" d="M177.825,-1071.59C174.986,-1069.65 172.34,-1067.46 170,-1065 80.5826,-971.077 59.4632,-807.349 54.5065,-740.6"/>
<polygon fill="none" stroke="black" points="57.9827,-740.126 53.82,-730.383 50.9984,-740.595 57.9827,-740.126"/>
</g>
<!-- \\FaultHandler -->
<g id="node21" class="node"><title>\\FaultHandler</title>
<polygon fill="none" stroke="black" points="748,-3022 650,-3022 650,-2986 748,-2986 748,-3022"/>
<text text-anchor="middle" x="699" y="-3001.1" font-family="Courier,monospace" font-size="11.00">FaultHandler</text>
</g>
<!-- \\IntuitErrorHandler -->
<g id="node22" class="node"><title>\\IntuitErrorHandler</title>
<polygon fill="none" stroke="black" points="768,-2968 630,-2968 630,-2932 768,-2932 768,-2968"/>
<text text-anchor="middle" x="699" y="-2947.1" font-family="Courier,monospace" font-size="11.00">IntuitErrorHandler</text>
</g>
<!-- \\TraceLogger -->
<g id="node23" class="node"><title>\\TraceLogger</title>
<polygon fill="none" stroke="black" points="744,-2374 654,-2374 654,-2338 744,-2338 744,-2374"/>
<text text-anchor="middle" x="699" y="-2353.1" font-family="Courier,monospace" font-size="11.00">TraceLogger</text>
</g>
<!-- \\Logger -->
<g id="node32" class="node"><title>\\Logger</title>
<polygon fill="none" stroke="black" points="449,-2374 393,-2374 393,-2338 449,-2338 449,-2374"/>
<text text-anchor="middle" x="421" y="-2353.1" font-family="Courier,monospace" font-size="11.00">Logger</text>
</g>
<!-- \\TraceLogger&#45;&gt;\\Logger -->
<g id="edge15" class="edge"><title>\\TraceLogger&#45;&gt;\\Logger</title>
<path fill="none" stroke="black" d="M653.405,-2356C599.477,-2356 510.635,-2356 459.842,-2356"/>
<polygon fill="none" stroke="black" points="459.607,-2352.5 449.607,-2356 459.607,-2359.5 459.607,-2352.5"/>
</g>
<!-- \\LocalConfigReader -->
<g id="node24" class="node"><title>\\LocalConfigReader</title>
<polygon fill="none" stroke="black" points="764,-2860 634,-2860 634,-2824 764,-2824 764,-2860"/>
<text text-anchor="middle" x="699" y="-2839.1" font-family="Courier,monospace" font-size="11.00">LocalConfigReader</text>
</g>
<!-- \\DeflateCompressor -->
<g id="node25" class="node"><title>\\DeflateCompressor</title>
<polygon fill="none" stroke="black" points="764,-2266 634,-2266 634,-2230 764,-2230 764,-2266"/>
<text text-anchor="middle" x="699" y="-2245.1" font-family="Courier,monospace" font-size="11.00">DeflateCompressor</text>
</g>
<!-- \\ICompressor -->
<g id="node72" class="node"><title>\\ICompressor</title>
<polygon fill="none" stroke="black" points="467,-2158 375,-2158 375,-2122 467,-2122 467,-2158"/>
<text text-anchor="start" x="387" y="-2145.43" font-family="Courier,monospace" font-size="11.00">«abstract»</text>
<text text-anchor="start" x="383.5" y="-2132.23" font-family="Courier,monospace" font-size="11.00">ICompressor</text>
</g>
<!-- \\DeflateCompressor&#45;&gt;\\ICompressor -->
<g id="edge19" class="edge"><title>\\DeflateCompressor&#45;&gt;\\ICompressor</title>
<path fill="none" stroke="black" d="M633.276,-2238.82C611.465,-2234.68 587.32,-2228.9 566,-2221 526.353,-2206.31 484.553,-2181.87 456.074,-2163.68"/>
<polygon fill="none" stroke="black" points="457.612,-2160.5 447.315,-2158.01 453.808,-2166.38 457.612,-2160.5"/>
</g>
<!-- \\SerializationException -->
<g id="node26" class="node"><title>\\SerializationException</title>
<polygon fill="none" stroke="black" points="781,-2698 617,-2698 617,-2662 781,-2662 781,-2698"/>
<text text-anchor="middle" x="699" y="-2677.1" font-family="Courier,monospace" font-size="11.00">SerializationException</text>
</g>
<!-- \\SdkException -->
<g id="node42" class="node"><title>\\SdkException</title>
<polygon fill="none" stroke="black" points="470,-2698 372,-2698 372,-2662 470,-2662 470,-2698"/>
<text text-anchor="middle" x="421" y="-2677.1" font-family="Courier,monospace" font-size="11.00">SdkException</text>
</g>
<!-- \\SerializationException&#45;&gt;\\SdkException -->
<g id="edge21" class="edge"><title>\\SerializationException&#45;&gt;\\SdkException</title>
<path fill="none" stroke="black" d="M616.344,-2680C572.615,-2680 519.93,-2680 480.3,-2680"/>
<polygon fill="none" stroke="black" points="480.262,-2676.5 470.262,-2680 480.262,-2683.5 480.262,-2676.5"/>
</g>
<!-- \\ServiceReturnedNoInformationException -->
<g id="node27" class="node"><title>\\ServiceReturnedNoInformationException</title>
<polygon fill="none" stroke="black" points="832,-2536 566,-2536 566,-2500 832,-2500 832,-2536"/>
<text text-anchor="middle" x="699" y="-2515.1" font-family="Courier,monospace" font-size="11.00">ServiceReturnedNoInformationException</text>
</g>
<!-- \\ServiceReturnedNoInformationException&#45;&gt;\\SdkException -->
<g id="edge23" class="edge"><title>\\ServiceReturnedNoInformationException&#45;&gt;\\SdkException</title>
<path fill="none" stroke="black" d="M586.773,-2536.04C579.59,-2538.64 572.6,-2541.61 566,-2545 513.774,-2571.86 466.712,-2622.94 441.158,-2653.99"/>
<polygon fill="none" stroke="black" points="438.406,-2651.83 434.834,-2661.8 443.846,-2656.23 438.406,-2651.83"/>
</g>
<!-- \\UtilityConstants -->
<g id="node28" class="node"><title>\\UtilityConstants</title>
<polygon fill="none" stroke="black" points="761,-2644 637,-2644 637,-2608 761,-2608 761,-2644"/>
<text text-anchor="middle" x="699" y="-2623.1" font-family="Courier,monospace" font-size="11.00">UtilityConstants</text>
</g>
<!-- \\ServiceException -->
<g id="node29" class="node"><title>\\ServiceException</title>
<polygon fill="none" stroke="black" points="483,-1429 359,-1429 359,-1393 483,-1393 483,-1429"/>
<text text-anchor="middle" x="421" y="-1408.1" font-family="Courier,monospace" font-size="11.00">ServiceException</text>
</g>
<!-- \\ServiceException&#45;&gt;\\IdsException -->
<g id="edge25" class="edge"><title>\\ServiceException&#45;&gt;\\IdsException</title>
<path fill="none" stroke="black" d="M410.014,-1392.65C377.468,-1338.3 281.445,-1177.93 243.092,-1113.87"/>
<polygon fill="none" stroke="black" points="246.006,-1111.93 237.866,-1105.15 240,-1115.52 246.006,-1111.93"/>
</g>
<!-- \\IdsExceptionManager -->
<g id="node30" class="node"><title>\\IdsExceptionManager</title>
<polygon fill="none" stroke="black" points="771,-2590 627,-2590 627,-2554 771,-2554 771,-2590"/>
<text text-anchor="middle" x="699" y="-2569.1" font-family="Courier,monospace" font-size="11.00">IdsExceptionManager</text>
</g>
<!-- \\InvalidParameterException -->
<g id="node31" class="node"><title>\\InvalidParameterException</title>
<polygon fill="none" stroke="black" points="791,-2482 607,-2482 607,-2446 791,-2446 791,-2482"/>
<text text-anchor="middle" x="699" y="-2461.1" font-family="Courier,monospace" font-size="11.00">InvalidParameterException</text>
</g>
<!-- \\InvalidParameterException&#45;&gt;\\SdkException -->
<g id="edge27" class="edge"><title>\\InvalidParameterException&#45;&gt;\\SdkException</title>
<path fill="none" stroke="black" d="M606.274,-2473.88C592.122,-2477.87 578.19,-2483.39 566,-2491 501.568,-2531.25 454.946,-2611.05 433.748,-2652.91"/>
<polygon fill="none" stroke="black" points="430.564,-2651.46 429.261,-2661.97 436.837,-2654.56 430.564,-2651.46"/>
</g>
<!-- \\RetryExceededException -->
<g id="node33" class="node"><title>\\RetryExceededException</title>
<polygon fill="none" stroke="black" points="781,-2428 617,-2428 617,-2392 781,-2392 781,-2428"/>
<text text-anchor="middle" x="699" y="-2407.1" font-family="Courier,monospace" font-size="11.00">RetryExceededException</text>
</g>
<!-- \\RetryExceededException&#45;&gt;\\SdkException -->
<g id="edge29" class="edge"><title>\\RetryExceededException&#45;&gt;\\SdkException</title>
<path fill="none" stroke="black" d="M616.222,-2415.84C598.499,-2419.97 580.706,-2426.58 566,-2437 489.128,-2491.48 446.054,-2600.72 429.282,-2652.09"/>
<polygon fill="none" stroke="black" points="425.875,-2651.25 426.188,-2661.84 432.547,-2653.37 425.875,-2651.25"/>
</g>
<!-- \\InvalidRealmException -->
<g id="node34" class="node"><title>\\InvalidRealmException</title>
<polygon fill="none" stroke="black" points="778,-3076 620,-3076 620,-3040 778,-3040 778,-3076"/>
<text text-anchor="middle" x="699" y="-3055.1" font-family="Courier,monospace" font-size="11.00">InvalidRealmException</text>
</g>
<!-- \\InvalidRealmException&#45;&gt;\\SdkException -->
<g id="edge31" class="edge"><title>\\InvalidRealmException&#45;&gt;\\SdkException</title>
<path fill="none" stroke="black" d="M619.892,-3054.79C600.604,-3050.74 581.177,-3043.52 566,-3031 463.132,-2946.16 432.301,-2776.31 423.888,-2708.71"/>
<polygon fill="none" stroke="black" points="427.321,-2707.93 422.683,-2698.4 420.368,-2708.74 427.321,-2707.93"/>
</g>
<!-- \\SyncRestHandler -->
<g id="node35" class="node"><title>\\SyncRestHandler</title>
<polygon fill="none" stroke="black" points="758,-1186 640,-1186 640,-1150 758,-1150 758,-1186"/>
<text text-anchor="middle" x="699" y="-1165.1" font-family="Courier,monospace" font-size="11.00">SyncRestHandler</text>
</g>
<!-- \\RestHandler -->
<g id="node56" class="node"><title>\\RestHandler</title>
<polygon fill="none" stroke="black" points="466,-1186 376,-1186 376,-1150 466,-1150 466,-1186"/>
<text text-anchor="middle" x="421" y="-1165.1" font-family="Courier,monospace" font-size="11.00">RestHandler</text>
</g>
<!-- \\SyncRestHandler&#45;&gt;\\RestHandler -->
<g id="edge33" class="edge"><title>\\SyncRestHandler&#45;&gt;\\RestHandler</title>
<path fill="none" stroke="black" d="M639.703,-1168C591.569,-1168 524.174,-1168 476.96,-1168"/>
<polygon fill="none" stroke="black" points="476.909,-1164.5 466.908,-1168 476.908,-1171.5 476.909,-1164.5"/>
</g>
<!-- \\IppConfiguration -->
<g id="node36" class="node"><title>\\IppConfiguration</title>
<polygon fill="none" stroke="black" points="761,-2320 637,-2320 637,-2284 761,-2284 761,-2320"/>
<text text-anchor="middle" x="699" y="-2299.1" font-family="Courier,monospace" font-size="11.00">IppConfiguration</text>
</g>
<!-- \\GZipCompressor -->
<g id="node37" class="node"><title>\\GZipCompressor</title>
<polygon fill="none" stroke="black" points="754,-2050 644,-2050 644,-2014 754,-2014 754,-2050"/>
<text text-anchor="middle" x="699" y="-2029.1" font-family="Courier,monospace" font-size="11.00">GZipCompressor</text>
</g>
<!-- \\GZipCompressor&#45;&gt;\\ICompressor -->
<g id="edge35" class="edge"><title>\\GZipCompressor&#45;&gt;\\ICompressor</title>
<path fill="none" stroke="black" d="M643.259,-2039.37C619.04,-2043.57 590.634,-2049.87 566,-2059 526.353,-2073.69 484.553,-2098.13 456.074,-2116.32"/>
<polygon fill="none" stroke="black" points="453.808,-2113.62 447.315,-2121.99 457.612,-2119.5 453.808,-2113.62"/>
</g>
<!-- \\RequestLog -->
<g id="node38" class="node"><title>\\RequestLog</title>
<polygon fill="none" stroke="black" points="741,-2212 657,-2212 657,-2176 741,-2176 741,-2212"/>
<text text-anchor="middle" x="699" y="-2191.1" font-family="Courier,monospace" font-size="11.00">RequestLog</text>
</g>
<!-- \\OperationControlList -->
<g id="node39" class="node"><title>\\OperationControlList</title>
<polygon fill="none" stroke="black" points="775,-2158 623,-2158 623,-2122 775,-2122 775,-2158"/>
<text text-anchor="middle" x="699" y="-2137.1" font-family="Courier,monospace" font-size="11.00">OperationControlList</text>
</g>
<!-- \\Message -->
<g id="node40" class="node"><title>\\Message</title>
<polygon fill="none" stroke="black" points="731,-2104 667,-2104 667,-2068 731,-2068 731,-2104"/>
<text text-anchor="middle" x="699" y="-2083.1" font-family="Courier,monospace" font-size="11.00">Message</text>
</g>
<!-- \\ProtocolException -->
<g id="node41" class="node"><title>\\ProtocolException</title>
<polygon fill="none" stroke="black" points="764,-1780 634,-1780 634,-1744 764,-1744 764,-1780"/>
<text text-anchor="middle" x="699" y="-1759.1" font-family="Courier,monospace" font-size="11.00">ProtocolException</text>
</g>
<!-- \\ProtocolException&#45;&gt;\\ServiceException -->
<g id="edge37" class="edge"><title>\\ProtocolException&#45;&gt;\\ServiceException</title>
<path fill="none" stroke="black" d="M633.225,-1760.8C609.929,-1757.43 584.852,-1750.09 566,-1735 469.592,-1657.81 435.266,-1502.92 424.905,-1439.28"/>
<polygon fill="none" stroke="black" points="428.33,-1438.53 423.34,-1429.19 421.413,-1439.61 428.33,-1438.53"/>
</g>
<!-- \\SdkException&#45;&gt;\\IdsException -->
<g id="edge39" class="edge"><title>\\SdkException&#45;&gt;\\IdsException</title>
<path fill="none" stroke="black" d="M414.203,-2661.9C397.287,-2616.02 353.212,-2491.1 333,-2383 285.193,-2127.3 237.558,-1281.71 228.528,-1115.5"/>
<polygon fill="none" stroke="black" points="232.002,-1114.93 227.967,-1105.13 225.012,-1115.31 232.002,-1114.93"/>
</g>
<!-- \\XmlObjectSerializer -->
<g id="node43" class="node"><title>\\XmlObjectSerializer</title>
<polygon fill="none" stroke="black" points="771,-754 627,-754 627,-718 771,-718 771,-754"/>
<text text-anchor="middle" x="699" y="-733.1" font-family="Courier,monospace" font-size="11.00">XmlObjectSerializer</text>
</g>
<!-- \\XmlObjectSerializer&#45;&gt;\\IEntitySerializer -->
<g id="edge41" class="edge"><title>\\XmlObjectSerializer&#45;&gt;\\IEntitySerializer</title>
<path fill="none" stroke="black" d="M626.322,-736C586.427,-736 537.011,-736 496.657,-736"/>
<polygon fill="none" stroke="black" points="496.604,-732.5 486.604,-736 496.604,-739.5 496.604,-732.5"/>
</g>
<!-- \\QueryMessage -->
<g id="node44" class="node"><title>\\QueryMessage</title>
<polygon fill="none" stroke="black" points="748,-1942 650,-1942 650,-1906 748,-1906 748,-1942"/>
<text text-anchor="middle" x="699" y="-1921.1" font-family="Courier,monospace" font-size="11.00">QueryMessage</text>
</g>
<!-- \\IntuitServicesType -->
<g id="node45" class="node"><title>\\IntuitServicesType</title>
<polygon fill="none" stroke="black" points="768,-1888 630,-1888 630,-1852 768,-1852 768,-1888"/>
<text text-anchor="middle" x="699" y="-1867.1" font-family="Courier,monospace" font-size="11.00">IntuitServicesType</text>
</g>
<!-- \\ServiceContext -->
<g id="node46" class="node"><title>\\ServiceContext</title>
<polygon fill="none" stroke="black" points="754,-1834 644,-1834 644,-1798 754,-1798 754,-1834"/>
<text text-anchor="middle" x="699" y="-1813.1" font-family="Courier,monospace" font-size="11.00">ServiceContext</text>
</g>
<!-- \\EndpointNotFoundException -->
<g id="node47" class="node"><title>\\EndpointNotFoundException</title>
<polygon fill="none" stroke="black" points="791,-1726 607,-1726 607,-1690 791,-1690 791,-1726"/>
<text text-anchor="middle" x="699" y="-1705.1" font-family="Courier,monospace" font-size="11.00">EndpointNotFoundException</text>
</g>
<!-- \\EndpointNotFoundException&#45;&gt;\\ServiceException -->
<g id="edge43" class="edge"><title>\\EndpointNotFoundException&#45;&gt;\\ServiceException</title>
<path fill="none" stroke="black" d="M606.169,-1700.1C591.795,-1695.89 577.819,-1689.78 566,-1681 482.753,-1619.13 442.21,-1494.93 427.605,-1439.2"/>
<polygon fill="none" stroke="black" points="430.949,-1438.14 425.1,-1429.31 424.163,-1439.86 430.949,-1438.14"/>
</g>
<!-- \\CommunicationException -->
<g id="node48" class="node"><title>\\CommunicationException</title>
<polygon fill="none" stroke="black" points="781,-1456 617,-1456 617,-1420 781,-1420 781,-1456"/>
<text text-anchor="middle" x="699" y="-1435.1" font-family="Courier,monospace" font-size="11.00">CommunicationException</text>
</g>
<!-- \\CommunicationException&#45;&gt;\\ServiceException -->
<g id="edge45" class="edge"><title>\\CommunicationException&#45;&gt;\\ServiceException</title>
<path fill="none" stroke="black" d="M616.344,-1429.97C577.575,-1426.21 531.766,-1421.76 494.257,-1418.11"/>
<polygon fill="none" stroke="black" points="494.202,-1414.59 483.91,-1417.11 493.525,-1421.56 494.202,-1414.59"/>
</g>
<!-- \\PlatformService -->
<g id="node49" class="node"><title>\\PlatformService</title>
<polygon fill="none" stroke="black" points="758,-1672 640,-1672 640,-1636 758,-1636 758,-1672"/>
<text text-anchor="middle" x="699" y="-1651.1" font-family="Courier,monospace" font-size="11.00">PlatformService</text>
</g>
<!-- \\BaseUrl -->
<g id="node50" class="node"><title>\\BaseUrl</title>
<polygon fill="none" stroke="black" points="731,-1618 667,-1618 667,-1582 731,-1582 731,-1618"/>
<text text-anchor="middle" x="699" y="-1597.1" font-family="Courier,monospace" font-size="11.00">BaseUrl</text>
</g>
<!-- \\IntuitCDCResponse -->
<g id="node51" class="node"><title>\\IntuitCDCResponse</title>
<polygon fill="none" stroke="black" points="764,-1564 634,-1564 634,-1528 764,-1528 764,-1564"/>
<text text-anchor="middle" x="699" y="-1543.1" font-family="Courier,monospace" font-size="11.00">IntuitCDCResponse</text>
</g>
<!-- \\RequestParameters -->
<g id="node52" class="node"><title>\\RequestParameters</title>
<polygon fill="none" stroke="black" points="764,-1510 634,-1510 634,-1474 764,-1474 764,-1510"/>
<text text-anchor="middle" x="699" y="-1489.1" font-family="Courier,monospace" font-size="11.00">RequestParameters</text>
</g>
<!-- \\Response -->
<g id="node53" class="node"><title>\\Response</title>
<polygon fill="none" stroke="black" points="734,-1024 664,-1024 664,-988 734,-988 734,-1024"/>
<text text-anchor="middle" x="699" y="-1003.1" font-family="Courier,monospace" font-size="11.00">Response</text>
</g>
<!-- \\Response&#45;&gt;\\RequestResponse -->
<g id="edge47" class="edge"><title>\\Response&#45;&gt;\\RequestResponse</title>
<path fill="none" stroke="black" d="M663.225,-1002.53C619.669,-998.295 545.133,-991.056 490.218,-985.723"/>
<polygon fill="none" stroke="black" points="490.496,-982.233 480.205,-984.75 489.819,-989.2 490.496,-982.233"/>
</g>
<!-- \\ServerTooBusyException -->
<g id="node54" class="node"><title>\\ServerTooBusyException</title>
<polygon fill="none" stroke="black" points="781,-1402 617,-1402 617,-1366 781,-1366 781,-1402"/>
<text text-anchor="middle" x="699" y="-1381.1" font-family="Courier,monospace" font-size="11.00">ServerTooBusyException</text>
</g>
<!-- \\ServerTooBusyException&#45;&gt;\\ServiceException -->
<g id="edge49" class="edge"><title>\\ServerTooBusyException&#45;&gt;\\ServiceException</title>
<path fill="none" stroke="black" d="M616.344,-1392.03C577.575,-1395.79 531.766,-1400.24 494.257,-1403.89"/>
<polygon fill="none" stroke="black" points="493.525,-1400.44 483.91,-1404.89 494.202,-1407.41 493.525,-1400.44"/>
</g>
<!-- \\FaultException -->
<g id="node55" class="node"><title>\\FaultException</title>
<polygon fill="none" stroke="black" points="754,-1348 644,-1348 644,-1312 754,-1312 754,-1348"/>
<text text-anchor="middle" x="699" y="-1327.1" font-family="Courier,monospace" font-size="11.00">FaultException</text>
</g>
<!-- \\FaultException&#45;&gt;\\ServiceException -->
<g id="edge51" class="edge"><title>\\FaultException&#45;&gt;\\ServiceException</title>
<path fill="none" stroke="black" d="M643.206,-1339.32C619.235,-1343.84 591.033,-1349.85 566,-1357 534.809,-1365.91 500.779,-1378.44 473.53,-1389.18"/>
<polygon fill="none" stroke="black" points="472.187,-1385.94 464.19,-1392.89 474.775,-1392.45 472.187,-1385.94"/>
</g>
<!-- \\ChannelTerminatedException -->
<g id="node57" class="node"><title>\\ChannelTerminatedException</title>
<polygon fill="none" stroke="black" points="795,-1294 603,-1294 603,-1258 795,-1258 795,-1294"/>
<text text-anchor="middle" x="699" y="-1273.1" font-family="Courier,monospace" font-size="11.00">ChannelTerminatedException</text>
</g>
<!-- \\ChannelTerminatedException&#45;&gt;\\ServiceException -->
<g id="edge53" class="edge"><title>\\ChannelTerminatedException&#45;&gt;\\ServiceException</title>
<path fill="none" stroke="black" d="M602.954,-1290.21C590.249,-1293.61 577.616,-1297.81 566,-1303 519.833,-1323.63 474.35,-1361.06 446.973,-1385.98"/>
<polygon fill="none" stroke="black" points="444.381,-1383.61 439.411,-1392.97 449.132,-1388.75 444.381,-1383.61"/>
</g>
<!-- \\LogRequestsToDisk -->
<g id="node58" class="node"><title>\\LogRequestsToDisk</title>
<polygon fill="none" stroke="black" points="764,-1240 634,-1240 634,-1204 764,-1204 764,-1240"/>
<text text-anchor="middle" x="699" y="-1219.1" font-family="Courier,monospace" font-size="11.00">LogRequestsToDisk</text>
</g>
<!-- \\InvalidServiceRequestException -->
<g id="node59" class="node"><title>\\InvalidServiceRequestException</title>
<polygon fill="none" stroke="black" points="808,-2914 590,-2914 590,-2878 808,-2878 808,-2914"/>
<text text-anchor="middle" x="699" y="-2893.1" font-family="Courier,monospace" font-size="11.00">InvalidServiceRequestException</text>
</g>
<!-- \\InvalidServiceRequestException&#45;&gt;\\SdkException -->
<g id="edge55" class="edge"><title>\\InvalidServiceRequestException&#45;&gt;\\SdkException</title>
<path fill="none" stroke="black" d="M589.427,-2880.54C581.212,-2877.36 573.294,-2873.56 566,-2869 501.568,-2828.75 454.946,-2748.95 433.748,-2707.09"/>
<polygon fill="none" stroke="black" points="436.837,-2705.44 429.261,-2698.03 430.564,-2708.54 436.837,-2705.44"/>
</g>
<!-- \\IntuitResponseStatus -->
<g id="node60" class="node"><title>\\IntuitResponseStatus</title>
<polygon fill="none" stroke="black" points="775,-1132 623,-1132 623,-1096 775,-1096 775,-1132"/>
<text text-anchor="middle" x="699" y="-1111.1" font-family="Courier,monospace" font-size="11.00">IntuitResponseStatus</text>
</g>
<!-- \\ResponseType -->
<g id="node61" class="node"><title>\\ResponseType</title>
<polygon fill="none" stroke="black" points="748,-1078 650,-1078 650,-1042 748,-1042 748,-1078"/>
<text text-anchor="middle" x="699" y="-1057.1" font-family="Courier,monospace" font-size="11.00">ResponseType</text>
</g>
<!-- \\OAuthRequestValidator -->
<g id="node62" class="node"><title>\\OAuthRequestValidator</title>
<polygon fill="none" stroke="black" points="778,-862 620,-862 620,-826 778,-826 778,-862"/>
<text text-anchor="middle" x="699" y="-841.1" font-family="Courier,monospace" font-size="11.00">OAuthRequestValidator</text>
</g>
<!-- \\RequestValidator -->
<g id="node81" class="node"><title>\\RequestValidator</title>
<polygon fill="none" stroke="black" points="483,-862 359,-862 359,-826 483,-826 483,-862"/>
<text text-anchor="middle" x="421" y="-841.1" font-family="Courier,monospace" font-size="11.00">RequestValidator</text>
</g>
<!-- \\OAuthRequestValidator&#45;&gt;\\RequestValidator -->
<g id="edge57" class="edge"><title>\\OAuthRequestValidator&#45;&gt;\\RequestValidator</title>
<path fill="none" stroke="black" d="M619.708,-844C580.079,-844 532.455,-844 493.765,-844"/>
<polygon fill="none" stroke="black" points="493.619,-840.5 483.619,-844 493.619,-847.5 493.619,-840.5"/>
</g>
<!-- \\InvalidTokenException -->
<g id="node63" class="node"><title>\\InvalidTokenException</title>
<polygon fill="none" stroke="black" points="778,-2806 620,-2806 620,-2770 778,-2770 778,-2806"/>
<text text-anchor="middle" x="699" y="-2785.1" font-family="Courier,monospace" font-size="11.00">InvalidTokenException</text>
</g>
<!-- \\InvalidTokenException&#45;&gt;\\SdkException -->
<g id="edge59" class="edge"><title>\\InvalidTokenException&#45;&gt;\\SdkException</title>
<path fill="none" stroke="black" d="M619.811,-2776.1C601.822,-2772.26 583.012,-2767.3 566,-2761 526.353,-2746.31 484.553,-2721.87 456.074,-2703.68"/>
<polygon fill="none" stroke="black" points="457.612,-2700.5 447.315,-2698.01 453.808,-2706.38 457.612,-2700.5"/>
</g>
<!-- \\DataCompressionFormat -->
<g id="node64" class="node"><title>\\DataCompressionFormat</title>
<polygon fill="none" stroke="black" points="778,-916 620,-916 620,-880 778,-880 778,-916"/>
<text text-anchor="middle" x="699" y="-895.1" font-family="Courier,monospace" font-size="11.00">DataCompressionFormat</text>
</g>
<!-- \\BatchItemsExceededException -->
<g id="node65" class="node"><title>\\BatchItemsExceededException</title>
<polygon fill="none" stroke="black" points="798,-2752 600,-2752 600,-2716 798,-2716 798,-2752"/>
<text text-anchor="middle" x="699" y="-2731.1" font-family="Courier,monospace" font-size="11.00">BatchItemsExceededException</text>
</g>
<!-- \\BatchItemsExceededException&#45;&gt;\\SdkException -->
<g id="edge63" class="edge"><title>\\BatchItemsExceededException&#45;&gt;\\SdkException</title>
<path fill="none" stroke="black" d="M606.044,-2715.94C564.491,-2707.87 516.749,-2698.6 480.168,-2691.49"/>
<polygon fill="none" stroke="black" points="480.645,-2688.02 470.161,-2689.55 479.31,-2694.89 480.645,-2688.02"/>
</g>
<!-- \\IntuitBatchResponse -->
<g id="node66" class="node"><title>\\IntuitBatchResponse</title>
<polygon fill="none" stroke="black" points="771,-808 627,-808 627,-772 771,-772 771,-808"/>
<text text-anchor="middle" x="699" y="-787.1" font-family="Courier,monospace" font-size="11.00">IntuitBatchResponse</text>
</g>
<!-- \\Request -->
<g id="node67" class="node"><title>\\Request</title>
<polygon fill="none" stroke="black" points="731,-970 667,-970 667,-934 731,-934 731,-970"/>
<text text-anchor="middle" x="699" y="-949.1" font-family="Courier,monospace" font-size="11.00">Request</text>
</g>
<!-- \\Request&#45;&gt;\\RequestResponse -->
<g id="edge65" class="edge"><title>\\Request&#45;&gt;\\RequestResponse</title>
<path fill="none" stroke="black" d="M666.838,-955.124C623.916,-959.292 546.77,-966.785 490.313,-972.268"/>
<polygon fill="none" stroke="black" points="489.64,-968.817 480.025,-973.267 490.317,-975.784 489.64,-968.817"/>
</g>
<!-- \\ContentWriter -->
<g id="node68" class="node"><title>\\ContentWriter</title>
<polygon fill="none" stroke="black" points="751,-700 647,-700 647,-664 751,-664 751,-700"/>
<text text-anchor="middle" x="699" y="-679.1" font-family="Courier,monospace" font-size="11.00">ContentWriter</text>
</g>
<!-- \\TraceLevel -->
<g id="node69" class="node"><title>\\TraceLevel</title>
<polygon fill="none" stroke="black" points="741,-646 657,-646 657,-610 741,-610 741,-646"/>
<text text-anchor="middle" x="699" y="-625.1" font-family="Courier,monospace" font-size="11.00">TraceLevel</text>
</g>
<!-- \\DataService -->
<g id="node70" class="node"><title>\\DataService</title>
<polygon fill="none" stroke="black" points="744,-592 654,-592 654,-556 744,-556 744,-592"/>
<text text-anchor="middle" x="699" y="-571.1" font-family="Courier,monospace" font-size="11.00">DataService</text>
</g>
<!-- \\RetryException -->
<g id="node71" class="node"><title>\\RetryException</title>
<polygon fill="none" stroke="black" points="754,-1996 644,-1996 644,-1960 754,-1960 754,-1996"/>
<text text-anchor="middle" x="699" y="-1975.1" font-family="Courier,monospace" font-size="11.00">RetryException</text>
</g>
<!-- \\RetryException&#45;&gt;\\ServiceException -->
<g id="edge67" class="edge"><title>\\RetryException&#45;&gt;\\ServiceException</title>
<path fill="none" stroke="black" d="M643.385,-1979.6C616.86,-1977.45 586.517,-1970.28 566,-1951 489.135,-1878.76 438.275,-1539.99 424.664,-1439.3"/>
<polygon fill="none" stroke="black" points="428.117,-1438.71 423.325,-1429.26 421.179,-1439.64 428.117,-1438.71"/>
</g>
<!-- \\ContentWriterSettings -->
<g id="node73" class="node"><title>\\ContentWriterSettings</title>
<polygon fill="none" stroke="black" points="778,-484 620,-484 620,-448 778,-448 778,-484"/>
<text text-anchor="middle" x="699" y="-463.1" font-family="Courier,monospace" font-size="11.00">ContentWriterSettings</text>
</g>
<!-- \\IRestHandler -->
<g id="node74" class="node"><title>\\IRestHandler</title>
<polygon fill="none" stroke="black" points="748,-430 650,-430 650,-394 748,-394 748,-430"/>
<text text-anchor="start" x="665" y="-417.433" font-family="Courier,monospace" font-size="11.00">«abstract»</text>
<text text-anchor="start" x="658" y="-404.233" font-family="Courier,monospace" font-size="11.00">IRestHandler</text>
</g>
<!-- \\OperationEnum -->
<g id="node75" class="node"><title>\\OperationEnum</title>
<polygon fill="none" stroke="black" points="751,-376 647,-376 647,-340 751,-340 751,-376"/>
<text text-anchor="middle" x="699" y="-355.1" font-family="Courier,monospace" font-size="11.00">OperationEnum</text>
</g>
<!-- \\Batch -->
<g id="node76" class="node"><title>\\Batch</title>
<polygon fill="none" stroke="black" points="726,-322 672,-322 672,-286 726,-286 726,-322"/>
<text text-anchor="middle" x="699" y="-301.1" font-family="Courier,monospace" font-size="11.00">Batch</text>
</g>
<!-- \\CoreConstants -->
<g id="node77" class="node"><title>\\CoreConstants</title>
<polygon fill="none" stroke="black" points="751,-268 647,-268 647,-232 751,-232 751,-268"/>
<text text-anchor="middle" x="699" y="-247.1" font-family="Courier,monospace" font-size="11.00">CoreConstants</text>
</g>
<!-- \\ConfigurationManager -->
<g id="node78" class="node"><title>\\ConfigurationManager</title>
<polygon fill="none" stroke="black" points="775,-214 623,-214 623,-178 775,-178 775,-214"/>
<text text-anchor="middle" x="699" y="-193.1" font-family="Courier,monospace" font-size="11.00">ConfigurationManager</text>
</g>
<!-- \\CoreHelper -->
<g id="node79" class="node"><title>\\CoreHelper</title>
<polygon fill="none" stroke="black" points="741,-160 657,-160 657,-124 741,-124 741,-160"/>
<text text-anchor="middle" x="699" y="-139.1" font-family="Courier,monospace" font-size="11.00">CoreHelper</text>
</g>
<!-- \\SerializationFormat -->
<g id="node80" class="node"><title>\\SerializationFormat</title>
<polygon fill="none" stroke="black" points="771,-106 627,-106 627,-70 771,-70 771,-106"/>
<text text-anchor="middle" x="699" y="-85.1" font-family="Courier,monospace" font-size="11.00">SerializationFormat</text>
</g>
<!-- \\JsonObjectSerializer -->
<g id="node82" class="node"><title>\\JsonObjectSerializer</title>
<polygon fill="none" stroke="black" points="775,-538 623,-538 623,-502 775,-502 775,-538"/>
<text text-anchor="middle" x="699" y="-517.1" font-family="Courier,monospace" font-size="11.00">JsonObjectSerializer</text>
</g>
<!-- \\JsonObjectSerializer&#45;&gt;\\IEntitySerializer -->
<g id="edge69" class="edge"><title>\\JsonObjectSerializer&#45;&gt;\\IEntitySerializer</title>
<path fill="none" stroke="black" d="M622.887,-522.92C602.701,-526.856 582.077,-534.094 566,-547 504.558,-596.324 551.467,-655.096 494,-709 492.891,-710.04 491.739,-711.041 490.549,-712.004"/>
<polygon fill="none" stroke="black" points="488.408,-709.23 482.214,-717.825 492.417,-714.968 488.408,-709.23"/>
</g>
<!-- \\SecurityException -->
<g id="node83" class="node"><title>\\SecurityException</title>
<polygon fill="none" stroke="black" points="486,-1105 356,-1105 356,-1069 486,-1069 486,-1105"/>
<text text-anchor="middle" x="421" y="-1084.1" font-family="Courier,monospace" font-size="11.00">SecurityException</text>
</g>
<!-- \\SecurityException&#45;&gt;\\IdsException -->
<g id="edge71" class="edge"><title>\\SecurityException&#45;&gt;\\IdsException</title>
<path fill="none" stroke="black" d="M355.32,-1087C332.925,-1087 308.035,-1087 286.181,-1087"/>
<polygon fill="none" stroke="black" points="286.048,-1083.5 276.048,-1087 286.048,-1090.5 286.048,-1083.5"/>
</g>
</g>
</svg>
